<svg width="54" height="54" viewBox="0 0 54 54" fill="none" xmlns="http://www.w3.org/2000/svg">
<path d="M53.1 19.8H49.5001C49.1401 19.8 48.78 20.07 48.6901 20.4299L46.1701 27.9H43.7401L41.3101 23.85C41.1301 23.58 40.8601 23.3999 40.5001 23.3999H36.9001V20.6999C36.9001 20.1599 36.5402 19.8 36.0002 19.8H29.7V16.2H32.4C32.94 16.2 33.3 15.84 33.3 15.3V9.90003C33.3 9.36003 32.94 9.00006 32.4 9.00006H16.2C15.66 9.00006 15.3 9.36003 15.3 9.90003V15.3C15.3 15.84 15.66 16.2 16.2 16.2H18.9V19.8H11.7C11.43 19.8 11.2499 19.8899 11.07 20.07C10.8901 20.25 10.8 20.4299 10.8 20.6999V23.3999H4.50004C3.96004 23.3999 3.60007 23.7599 3.60007 24.2999V29.6999H1.80004V27C1.80004 26.46 1.44007 26.1 0.90007 26.1C0.36007 26.1 0 26.46 0 27V34.2C0 34.74 0.359965 35.1 0.899965 35.1C1.43996 35.1 1.79993 34.74 1.79993 34.2V31.5H3.59996V38.7001C3.59996 39.2401 3.95993 39.6 4.49993 39.6H11.2499L14.5799 44.6401C14.7599 44.8201 15.0299 45 15.2999 45H40.5C40.86 45 41.13 44.82 41.31 44.46L43.74 39.6H46.26L48.69 44.46C48.87 44.82 49.14 45 49.5 45H53.0999C53.6399 45 53.9999 44.6401 53.9999 44.1001V20.7C54 20.16 53.64 19.8 53.1 19.8ZM17.1 10.8H31.4999V14.4H28.7999H19.8H17.1V10.8ZM20.7 16.2H27.9001V19.8H20.7V16.2ZM5.4 37.8V25.2H10.8V37.8H5.4ZM39.87 43.2H15.75L12.5999 38.4324V24.3V21.6H19.8H28.7999H35.1V24.3C35.1 24.84 35.46 25.2 36 25.2H39.96L42.3 29.1V38.34L39.87 43.2ZM44.1 37.8V29.7H45.9V37.8H44.1ZM52.2 43.2H50.04L47.6999 38.6871V28.8032L50.1299 21.6H52.2V43.2Z" fill="black"/>
</svg>
